<svg width="58" height="33" viewBox="0 0 58 33" fill="none" xmlns="http://www.w3.org/2000/svg">
<path d="M50.2658 0.307129H51.2567C51.9331 0.40946 52.5664 0.741414 53.045 1.22874C54.6967 2.87977 56.3484 4.53142 57.9995 6.18308C50.7263 13.4561 43.4524 20.7291 36.1792 28.0028C35.6276 28.5756 34.6155 28.5899 34.0527 28.0259C29.3784 23.3517 24.7047 18.6775 20.0304 14.0039C22.0721 11.9611 24.115 9.91942 26.1567 7.87654C26.445 7.58327 26.8518 7.40794 27.2649 7.41792C27.6905 7.41106 28.1036 7.60698 28.395 7.91273C30.6307 10.149 32.8683 12.3841 35.1028 14.6217C39.4389 10.2913 43.77 5.95533 48.1043 1.62309C48.3258 1.40782 48.5323 1.17632 48.7713 0.979771C49.1981 0.626603 49.7216 0.401349 50.2658 0.307129Z" fill="white"/>
<path d="M6.47237 11.7732C7.01649 11.1711 8.05044 11.1349 8.63013 11.7046C10.693 13.7643 12.7528 15.8272 14.8145 17.8876C12.4053 20.2967 9.99604 22.7059 7.58682 25.115C5.18072 22.7109 2.77836 20.3029 0.369765 17.9007L0.369141 17.9556V17.8801C2.40022 15.8415 4.43942 13.8105 6.47237 11.7732Z" fill="white"/>
<path d="M8.19084 25.7178C11.9129 21.9945 15.6363 18.2719 19.3596 14.5493C21.7688 16.9578 24.1768 19.367 26.586 21.7755C23.219 25.1493 19.8457 28.5163 16.4762 31.8876C15.9139 32.4542 14.9056 32.4436 14.3484 31.8758C12.2954 29.8235 10.2419 27.7719 8.19084 25.7178Z" fill="white"/>
</svg>
