<svg width="197" height="48" viewBox="0 0 197 48" fill="none" xmlns="http://www.w3.org/2000/svg">
<g clip-path="url(#clip0_276_40109)">
<path d="M61.5504 0H62.141C63.1714 0.0833588 64.172 0.615573 64.9059 1.4913C67.0557 4.07542 69.2064 6.65863 71.3555 9.24366C62.5495 19.833 53.7398 30.4186 44.9323 41.0061C44.6259 41.3652 44.3447 41.7783 43.9484 42.0009C43.0713 42.5588 41.9099 42.3637 41.2042 41.5209C38.5597 38.3414 35.9153 35.1628 33.2701 31.9841C30.1264 28.2037 26.9805 24.425 23.8369 20.6437C24.0732 20.346 24.3216 20.0638 24.5548 19.7624C26.9493 16.9163 29.3163 14.0373 31.7047 11.1847C32.5743 10.1579 34.1045 10.1515 34.9748 11.1792C37.6025 14.334 40.2264 17.4944 42.8548 20.6473C48.1651 14.2653 53.4753 7.88244 58.7848 1.49954C59.5187 0.621985 60.5185 0.0870229 61.5504 0Z" fill="#F2A413"/>
<path d="M7.84875 16.8495C8.70382 15.8263 10.2143 15.797 11.0922 16.7936C13.7267 19.953 19.0903 26.3817 19.0903 26.3817L9.51659 37.7519C9.51659 37.7519 3.15733 30.1127 0 26.3102V26.2846C2.61473 23.1371 5.23174 19.9933 7.84875 16.8495Z" fill="#9CA64E"/>
<path d="M23.8372 20.6437C24.5824 19.7046 24.586 19.7573 23.8372 20.6437C26.9809 24.425 30.1268 28.2037 33.2704 31.9841C29.0888 37.0159 24.9019 42.0421 20.7195 47.073C20.1083 47.8287 19.1321 48.1832 18.2923 47.825C17.7619 47.6556 17.3496 47.1994 16.9853 46.7295C14.4834 43.723 11.9822 40.7148 9.47949 37.7084C14.2449 31.9956 19.0792 26.3629 23.8372 20.6437Z" fill="#54592A"/>
<path d="M171.63 33.4434C172.606 32.2131 174.051 31.7267 175.425 31.6131C177.234 31.4812 179.13 31.8256 180.697 32.9753C180.383 33.8995 180.072 34.8247 179.758 35.7481C178.714 35.0455 177.545 34.5637 176.343 34.5197C175.663 34.5032 174.946 34.5508 174.34 34.9576C173.943 35.214 173.649 35.7243 173.665 36.2785C173.647 36.6449 173.802 36.9966 174.036 37.2238C174.392 37.5756 174.841 37.7496 175.277 37.9081C176.514 38.3231 177.803 38.5365 178.993 39.1438C179.649 39.4827 180.283 39.9609 180.7 40.6736C181.347 41.7866 181.397 43.2962 181.013 44.5457C180.581 45.927 179.526 46.8934 178.388 47.3469C176.853 47.9606 175.184 47.9359 173.608 47.5869C172.467 47.3075 171.32 46.8614 170.382 46.0095C170.724 45.0907 171.067 44.1728 171.414 43.2568C172.262 43.9905 173.254 44.4641 174.274 44.7179C175.105 44.9176 175.969 44.9734 176.805 44.7884C177.234 44.6821 177.681 44.4998 177.976 44.0913C178.316 43.6269 178.336 42.8446 177.96 42.4012C177.569 41.9295 177.019 41.7334 176.503 41.5502C175.055 41.0666 173.506 40.8522 172.2 39.895C171.605 39.4608 171.101 38.8131 170.86 38.0198C170.4 36.4818 170.671 34.626 171.63 33.4434Z" fill="#54592A"/>
<path d="M65.007 31.953C66.2705 31.6287 67.6034 31.6672 68.8471 32.0931C69.8036 32.4247 70.6983 33.0348 71.3925 33.8968C71.1921 34.1579 70.9886 34.4153 70.7859 34.6745C70.0238 33.7676 69.0323 33.1493 67.9738 32.9386C66.5533 32.64 65.0359 32.8397 63.7549 33.6632C62.6834 34.342 61.8047 35.454 61.307 36.7823C60.6189 38.6144 60.6204 40.8 61.3108 42.6311C61.8108 43.9539 62.6849 45.066 63.7549 45.7438C64.7623 46.3979 65.9261 46.6635 67.0661 46.5921C68.2634 46.5371 69.4766 46.0937 70.4071 45.1612C70.4003 43.3649 70.4056 41.5676 70.4049 39.7713C70.7127 39.7704 71.0214 39.7704 71.3308 39.7704C71.3331 41.6281 71.3293 43.4849 71.3331 45.3426C71.3156 45.4672 71.3758 45.6403 71.2691 45.7264C70.4049 46.6773 69.293 47.2626 68.1468 47.5127C66.6935 47.8278 65.1571 47.6904 63.7884 47.0043C62.7207 46.4702 61.7689 45.5945 61.086 44.4705C59.3652 41.6666 59.4049 37.4821 61.211 34.7478C62.1461 33.3096 63.5278 32.3313 65.007 31.953Z" fill="#54592A"/>
<path d="M99.3345 31.8485C100.834 31.5747 102.416 31.8082 103.776 32.6345C104.969 33.3463 105.972 34.5169 106.58 35.9432C107.339 37.6892 107.507 39.7695 107.134 41.6794C106.816 43.3218 106.034 44.8314 104.937 45.8849C102.829 47.9212 99.7316 48.2143 97.3226 46.8046C96.1238 46.1011 95.1133 44.935 94.4945 43.5133C93.7796 41.8947 93.5815 39.982 93.8429 38.1866C94.0891 36.5038 94.8039 34.9191 95.8693 33.7841C96.8311 32.7435 98.0595 32.0858 99.3345 31.8485ZM99.7979 32.8589C98.2706 33.0485 96.7998 33.9728 95.8647 35.4495C94.1889 38.0409 94.323 42.087 96.2221 44.465C98.1403 46.9328 101.558 47.2846 103.87 45.4269C104.87 44.6327 105.635 43.4281 106.02 42.065C106.497 40.3731 106.446 38.465 105.85 36.8244C105.421 35.6363 104.69 34.6104 103.78 33.916C102.611 33.0119 101.171 32.6702 99.7979 32.8589Z" fill="#54592A"/>
<path d="M78.3816 47.5566C78.3801 42.3206 78.3801 37.0837 78.3816 31.8476C79.9432 31.8476 81.5039 31.8467 83.0654 31.8476C84.1628 31.8586 85.2915 32.0611 86.2654 32.7041C87.2264 33.3133 87.9497 34.4272 88.1973 35.7005C88.4633 37.0773 88.3734 38.6006 87.7805 39.8427C87.2508 40.9631 86.2975 41.7078 85.2854 42.0687C86.3737 43.8971 87.4612 45.7264 88.5471 47.5566C88.1836 47.5603 87.8201 47.5521 87.4566 47.5621C86.4057 45.8235 85.3769 44.0656 84.3358 42.3188C83.461 42.4736 82.5754 42.4177 81.6952 42.4278C80.9118 42.4278 80.1291 42.4269 79.3464 42.4278C79.3457 44.1371 79.3472 45.8473 79.3457 47.5566C79.0241 47.5576 78.7025 47.5576 78.3816 47.5566ZM79.3464 32.9011C79.3457 35.7353 79.3464 38.5695 79.3464 41.4037C80.5848 41.4055 81.824 41.4037 83.0631 41.4055C83.6507 41.4009 84.2421 41.3359 84.8114 41.1508C85.6062 40.9026 86.366 40.364 86.821 39.524C87.3293 38.596 87.4269 37.429 87.3057 36.3499C87.2005 35.4284 86.8233 34.5398 86.2083 33.9627C85.3898 33.1805 84.3145 32.9377 83.2933 32.902C81.9779 32.8992 80.6618 32.9011 79.3464 32.9011Z" fill="#54592A"/>
<path d="M111.778 31.8495C112.118 31.8458 112.458 31.8476 112.798 31.8476C114.121 36.5478 115.44 41.2498 116.767 45.949C118.128 41.2489 119.485 36.5469 120.846 31.8476C121.154 31.8467 121.462 31.8458 121.77 31.8485C123.125 36.5514 124.465 41.2608 125.833 45.9582C127.173 41.2562 128.497 36.5487 129.837 31.8476C130.152 31.8476 130.467 31.8458 130.784 31.8485C129.311 37.0855 127.834 42.3206 126.36 47.5566C126.02 47.5585 125.68 47.5557 125.341 47.5585C123.987 42.8766 122.65 38.1875 121.296 33.5056C119.947 38.1911 118.591 42.8739 117.239 47.5576C116.898 47.5566 116.557 47.5585 116.217 47.5566C114.739 42.3206 113.252 37.0873 111.778 31.8495Z" fill="#54592A"/>
<path d="M135.774 31.8485C136.823 31.8449 137.873 31.8485 138.923 31.8467C139.905 35.5173 140.887 39.1887 141.864 42.8611C142.891 39.1905 143.911 35.5173 144.94 31.8476C145.876 31.8476 146.812 31.8458 147.748 31.8485C148.738 35.5493 149.73 39.2482 150.727 42.9463C151.738 39.2464 152.746 35.5447 153.763 31.8476C154.73 31.8476 155.697 31.8467 156.664 31.8476C155.246 37.0855 153.816 42.3188 152.393 47.5539C151.307 47.5621 150.221 47.5557 149.135 47.5566C148.175 44.0253 147.223 40.4904 146.269 36.9563C145.279 40.4895 144.299 44.0263 143.306 47.5585C142.227 47.5557 141.149 47.5585 140.07 47.5566C138.634 42.3224 137.207 37.0846 135.774 31.8485Z" fill="#54592A"/>
<path d="M161.766 31.8476C162.778 31.8467 163.789 31.8476 164.801 31.8476C164.803 37.0837 164.803 42.3206 164.8 47.5576C163.789 47.5576 162.778 47.5585 161.767 47.5566C161.766 42.3206 161.766 37.0846 161.766 31.8476Z" fill="#54592A"/>
<path d="M186.84 31.8485C190.129 31.8467 193.418 31.8467 196.707 31.8485C196.709 32.8241 196.707 33.8006 196.708 34.7762C194.422 34.7817 192.136 34.7762 189.85 34.7789C189.849 35.9084 189.849 37.0379 189.85 38.1682C191.868 38.1682 193.888 38.1682 195.906 38.1682C195.909 39.1145 195.907 40.0608 195.907 41.007C193.888 41.0089 191.869 41.0061 189.85 41.0079C189.849 42.2134 189.849 43.4198 189.85 44.6253C192.233 44.6272 194.616 44.6253 197 44.6263V47.5576C193.613 47.5566 190.227 47.5585 186.84 47.5566C186.838 42.3206 186.838 37.0846 186.84 31.8485Z" fill="#54592A"/>
</g>
<defs>
<clipPath id="clip0_276_40109">
<rect width="197" height="48" fill="white"/>
</clipPath>
</defs>
</svg>
