<svg width="316" height="64" viewBox="0 0 316 64" fill="none" xmlns="http://www.w3.org/2000/svg">
<g clip-path="url(#clip0_707_22140)">
<path d="M97.6685 0.0305176H99.6081C100.932 0.230823 102.172 0.880594 103.109 1.83449C106.342 5.06624 109.575 8.29922 112.807 11.5322C98.5699 25.7685 84.3319 40.0049 70.0952 54.2424C69.0155 55.3636 67.0344 55.3917 65.9327 54.2876C56.7831 45.1383 47.6348 35.989 38.4853 26.8409C42.4817 22.8421 46.4806 18.8458 50.477 14.847C51.0413 14.273 51.8377 13.9298 52.6462 13.9493C53.4792 13.9359 54.2878 14.3194 54.8582 14.9178C59.2345 19.2952 63.6145 23.6702 67.9883 28.0501C76.4759 19.5737 84.9537 11.0864 93.4375 2.6064C93.8711 2.18502 94.2754 1.73189 94.7432 1.34716C95.5787 0.655861 96.6034 0.214945 97.6685 0.0305176Z" fill="white"/>
<path d="M11.9466 22.4745C13.0116 21.2959 15.0355 21.225 16.1702 22.3401C20.2082 26.3719 24.24 30.4098 28.2755 34.4427C23.5597 39.1585 18.8438 43.8742 14.128 48.5899C9.41826 43.884 4.71585 39.1707 0.00122141 34.4684L0 34.5759V34.4281C3.97568 30.4378 7.96723 26.4623 11.9466 22.4745Z" fill="white"/>
<path d="M15.3103 49.7698C22.596 42.4818 29.8841 35.1951 37.1723 27.9084C41.8881 32.6229 46.6015 37.3386 51.3174 42.0531C44.7267 48.6571 38.1237 55.2476 31.5281 61.8467C30.4277 62.9557 28.4539 62.9349 27.3631 61.8235C23.3447 57.8064 19.3251 53.7905 15.3103 49.7698Z" fill="white"/>
<path d="M277.197 43.0644C279.097 42.2766 281.194 42.1191 283.229 42.2412C285.385 42.3951 287.553 42.9313 289.412 44.0647C288.91 45.3105 288.402 46.5551 287.895 47.7985C285.866 46.6479 283.516 45.9603 281.172 46.1752C280.28 46.2607 279.333 46.4684 278.656 47.0962C278.027 47.6849 277.817 48.7621 278.364 49.4705C278.863 50.0983 279.654 50.3731 280.391 50.6162C282.224 51.1658 284.136 51.4296 285.942 52.0782C287.216 52.5349 288.491 53.1884 289.325 54.2901C290.172 55.382 290.416 56.833 290.27 58.1814C290.101 59.8803 289.098 61.429 287.694 62.3756C286.188 63.4369 284.34 63.8033 282.547 64.0305H280.176C277.582 63.7239 274.893 63.1682 272.753 61.5829C273.309 60.3505 273.865 59.1169 274.421 57.8846C276.315 59.2195 278.609 59.9621 280.918 60.0769C282.185 60.1001 283.568 60.0708 284.656 59.3356C285.435 58.825 285.71 57.6464 285.127 56.8904C284.594 56.2113 283.73 55.934 282.941 55.6775C280.515 54.9618 277.898 54.7053 275.697 53.3704C274.614 52.7194 273.737 51.691 273.401 50.4598C272.995 48.9441 273.141 47.2598 273.906 45.8797C274.618 44.5814 275.846 43.6287 277.197 43.0644Z" fill="white"/>
<path d="M102.574 42.7078C104.587 42.2705 106.709 42.3108 108.699 42.8519C110.292 43.2879 111.779 44.1233 112.936 45.3081C112.61 45.6586 112.281 46.0079 111.95 46.3548C110.685 45.0907 109.012 44.2565 107.244 43.9927C104.965 43.6385 102.542 43.9218 100.506 45.0479C98.7641 45.9933 97.3497 47.5285 96.5753 49.3557C95.5884 51.6629 95.564 54.367 96.5069 56.6925C97.1982 58.4122 98.4465 59.8986 100.016 60.8818C101.926 62.1032 104.268 62.5478 106.508 62.3243C108.248 62.1777 109.963 61.5621 111.33 60.4617C111.331 58.0421 111.33 55.6214 111.331 53.2018C111.832 53.2006 112.335 53.2006 112.837 53.2006C112.841 55.8302 112.833 58.4586 112.841 61.0882C111.335 62.5478 109.302 63.3685 107.248 63.6727C105.163 63.9694 102.993 63.807 101.015 63.0583C99.2184 62.3853 97.6037 61.2201 96.4336 59.6983C93.49 55.9108 93.5352 50.1093 96.5533 46.3768C98.0508 44.4983 100.237 43.222 102.574 42.7078Z" fill="white"/>
<path d="M158.366 42.5136C161.085 42.163 163.959 42.6968 166.265 44.2149C168.179 45.4522 169.645 47.3551 170.369 49.5145C171.064 51.5908 171.125 53.8723 170.584 55.9914C169.959 58.433 168.404 60.6204 166.291 61.9957C162.383 64.5435 156.88 64.4275 153.133 61.6256C151.177 60.1734 149.794 57.992 149.275 55.6165C148.666 52.8464 149.069 49.8186 150.579 47.3954C152.231 44.6693 155.222 42.8873 158.366 42.5136ZM158.361 43.9719C156.701 44.2259 155.1 44.9087 153.807 45.9847C152.38 47.1585 151.353 48.7939 150.884 50.5783C150.235 53.0491 150.549 55.7923 151.874 57.9933C152.936 59.774 154.652 61.1383 156.609 61.8162C158.961 62.632 161.621 62.5673 163.915 61.5865C165.748 60.8049 167.313 59.3954 168.25 57.633C169.439 55.4284 169.663 52.7499 168.97 50.3523C168.371 48.2601 166.977 46.4036 165.117 45.2678C163.124 44.0207 160.67 43.6201 158.361 43.9719Z" fill="white"/>
<path d="M124.218 42.5539C126.456 42.5551 128.693 42.5539 130.932 42.5539C132.289 42.5453 133.663 42.5869 134.981 42.9398C136.596 43.3502 138.15 44.2284 139.113 45.6171C140.198 47.1511 140.46 49.1334 140.198 50.9606C139.994 52.3542 139.349 53.6989 138.303 54.6565C137.478 55.4333 136.442 55.9548 135.365 56.2833C137.124 58.7432 138.88 61.2043 140.636 63.6641C140.043 63.6641 139.449 63.6641 138.857 63.6641C137.182 61.3166 135.502 58.9728 133.833 56.6204C132.468 56.8293 131.085 56.7487 129.711 56.7633C128.401 56.7633 127.093 56.7633 125.785 56.7633C125.785 59.0632 125.784 61.363 125.785 63.6629C125.261 63.6641 124.738 63.6641 124.217 63.6641C124.217 56.6278 124.216 49.5902 124.218 42.5539ZM125.785 43.9597C125.784 47.7728 125.784 51.5859 125.785 55.3991C127.093 55.4003 128.401 55.3991 129.71 55.3991C131.257 55.3844 132.83 55.4846 134.348 55.1169C135.609 54.8238 136.84 54.2009 137.639 53.1542C138.617 51.8876 138.847 50.1899 138.631 48.6388C138.46 47.3062 137.768 46.0214 136.655 45.2458C135.249 44.2418 133.467 43.978 131.779 43.9658C129.78 43.9499 127.782 43.9633 125.785 43.9597Z" fill="white"/>
<path d="M178.133 42.5551C178.683 42.5527 179.234 42.5551 179.785 42.5539C181.917 48.8708 184.056 55.1853 186.19 61.5023C188.387 55.1878 190.586 48.8733 192.776 42.5551C193.273 42.5539 193.77 42.5539 194.268 42.5551C196.457 48.8794 198.632 55.2073 200.828 61.5279C202.981 55.2024 205.141 48.8806 207.29 42.5539C207.8 42.5539 208.312 42.5551 208.824 42.5539C206.444 49.5914 204.061 56.6278 201.676 63.6641C201.128 63.6641 200.58 63.6641 200.033 63.6641C197.86 57.3691 195.679 51.0766 193.512 44.7792C191.322 51.0717 189.141 57.3679 186.954 63.6617C186.404 63.6653 185.854 63.6641 185.306 63.6629C182.919 56.6253 180.52 49.5927 178.133 42.5551Z" fill="white"/>
<path d="M216.876 42.5539C218.573 42.5551 220.27 42.5539 221.967 42.5551C223.554 47.4821 225.12 52.4177 226.725 57.3386C228.366 52.4079 230.03 47.4833 231.677 42.5551C233.188 42.5539 234.699 42.5551 236.21 42.5539C237.814 47.5236 239.411 52.4959 241.022 57.4632C242.651 52.4934 244.293 47.5273 245.917 42.5551C247.484 42.5575 249.049 42.5478 250.617 42.56C248.304 49.5939 246.02 56.6363 243.702 63.6665C241.951 63.6592 240.198 63.6665 238.448 63.6629C236.917 58.9215 235.366 54.1875 233.834 49.4461C232.201 54.1728 230.649 58.9288 229.043 63.6641C227.297 63.6568 225.552 63.6775 223.807 63.6543C221.506 56.618 219.191 49.5853 216.876 42.5539Z" fill="white"/>
<path d="M258.837 42.5551C260.471 42.5539 262.106 42.5551 263.742 42.5539C263.743 49.5902 263.742 56.6278 263.742 63.6641C262.106 63.6641 260.471 63.6653 258.835 63.6629C258.837 56.6278 258.835 49.5914 258.837 42.5551Z" fill="white"/>
<path d="M299.326 42.5539C304.639 42.5551 309.952 42.5539 315.266 42.5551C315.266 43.8705 315.264 45.1872 315.266 46.5026C311.574 46.505 307.882 46.5026 304.191 46.5038C304.191 48.0244 304.191 49.5438 304.191 51.0632C307.455 51.0632 310.719 51.062 313.983 51.0644C313.982 52.3322 313.982 53.6012 313.983 54.869C310.719 54.8714 307.455 54.869 304.191 54.8702C304.191 56.4922 304.19 58.1142 304.192 59.7362C308.039 59.7337 311.886 59.7362 315.733 59.7349V63.6641C310.264 63.6641 304.794 63.6641 299.326 63.6641C299.326 56.6278 299.325 49.5914 299.326 42.5539Z" fill="white"/>
</g>
<defs>
<clipPath id="clip0_707_22140">
<rect width="315.733" height="64" fill="white"/>
</clipPath>
</defs>
</svg>
