<svg width="258" height="116" viewBox="0 0 258 116" fill="none" xmlns="http://www.w3.org/2000/svg">
<path d="M139.188 11.1558C138.789 9.60186 138.754 7.49652 139.152 6.1932C139.26 5.6418 140.057 5.14053 140.852 4.83976C140.781 4.539 140.743 4.23822 140.743 3.93747C140.31 3.43619 138.789 3.18556 140.672 1.9825C140.599 2.68429 141.685 2.98504 141.504 2.13287C141.577 0.679179 144.254 2.53389 143.929 3.53643C144 3.73695 144.073 3.83721 144.146 3.98759C144.219 3.98759 144.29 3.98759 144.363 3.98759C144.653 3.88733 144.978 3.83721 145.304 3.73695C145.159 3.48631 144.978 3.18556 144.58 2.88478C144.038 1.83211 146.027 2.63415 145.956 2.03262C146.317 0.629051 151.058 0.879689 151.529 2.48377C151.529 2.63415 151.565 2.73441 151.601 2.88478C152.47 3.0853 153.338 3.13542 154.207 2.88478C154.207 2.73441 154.063 2.63415 153.736 2.68429C152.722 -0.273242 157.718 -0.273242 157.645 1.73186C154.749 0.879688 156.052 3.43619 158.187 2.7344C158.767 1.83211 157.718 0.177904 158.948 0.127777C159.853 0.177904 161.553 -0.574007 161.915 1.0802C163.436 0.629051 164.522 2.28325 166.005 1.0802C167.308 3.68683 170.782 0.378415 171.795 2.98504C173.678 3.13542 175.813 1.23058 177.585 3.0853C177.984 2.88478 178.382 2.78452 178.78 2.68429C178.019 1.93236 179.287 2.23313 180.59 2.48377H182.11C180.661 1.88224 181.278 1.73186 182.833 2.18299C182.942 2.18299 183.05 2.28325 183.159 2.33339C183.449 2.33339 183.701 2.33339 183.991 2.18299C184.137 2.18299 184.679 2.63415 185.186 2.98504C185.801 2.38351 186.343 2.58403 186.887 2.78452C188.551 3.03516 190.614 3.33594 192.786 3.63669C194.342 3.63669 195.862 3.78709 197.346 4.33848C197.49 4.48886 197.671 4.48886 197.853 4.539C198.034 4.539 198.214 4.58912 198.359 4.63924C199.156 4.63924 199.988 4.13797 200.676 4.99013C200.856 5.79218 202.014 5.9927 202.304 5.14053C202.304 4.83975 202.847 4.88989 202.847 5.14053C202.196 6.34357 204.221 6.09294 204.656 6.69447C204.511 6.69447 204.367 6.74461 204.221 6.79473C204.475 6.84485 204.692 6.9451 204.982 6.99524C205.344 7.24588 205.741 7.49652 206.139 7.74715C206.575 6.9451 206.936 5.9927 207.479 6.09294C207.732 6.44383 208.962 7.99779 208.71 6.74461C206.502 4.83976 209.976 5.34103 210.845 6.14308C212.219 6.39371 212.328 7.64689 212.401 8.69958C212.763 8.7497 213.124 8.95021 213.378 9.50161C213.523 9.90262 213.739 10.053 213.956 10.2535C214.029 10.2535 214.029 10.2535 214.102 10.2535C215.115 9.75224 216.925 7.94765 217.829 9.55175C218.335 11.4566 221.014 10.6545 221.702 11.7573C221.774 12.4591 222.063 13.1609 222.426 13.7123C223.112 14.0632 223.837 14.2136 224.524 14.5144C224.597 14.5144 224.669 14.5144 224.778 14.4642C226.479 15.1159 228.94 14.6146 230.423 16.3189C231.148 17.7726 231.98 17.1711 233.137 17.3215C234.115 18.6248 235.345 20.8304 236.938 20.7301C237.445 19.8279 238.928 20.9807 239.507 21.6324C239.109 22.5848 240.521 22.8354 240.919 23.7379C241.136 24.0886 241.643 24.0386 241.317 23.4871C241.063 21.081 242.512 25.0912 243.344 25.3919C243.271 25.5424 243.163 25.7429 243.38 25.9935C244.103 26.7454 243.09 26.5952 242.764 26.2942C242.62 26.1941 242.583 26.2942 242.475 26.2442C242.909 26.7454 243.307 27.1967 243.778 27.5975C245.732 27.5975 246.637 30.9562 248.338 30.0539C248.772 30.7054 248.192 31.7582 248.699 32.2596C249.206 32.6103 249.387 33.1117 249.495 33.6129C250.111 34.415 250.654 35.2671 250.98 36.2697C251.197 38.0241 253.622 40.1795 253.259 41.6835C253.332 41.7836 253.405 41.9341 253.513 41.9843C253.622 40.5304 253.079 39.3274 252.21 38.6757C251.595 36.5203 253.874 39.8788 254.055 40.9817C254.888 42.3851 254.272 42.8865 253.911 43.5884C254.635 44.7914 256.082 46.1447 255.54 48.3503C256.336 50.0547 256.009 51.9596 256.843 53.4633C256.843 52.8117 256.806 52.2603 257.385 53.4633C257.965 54.5161 257.748 55.8194 257.638 56.9723C257.529 58.1753 257.35 59.3284 257.711 60.5815C258.182 62.737 258.145 65.0427 257.096 65.5441C256.662 64.6418 257.529 62.6367 257.096 61.4838H257.06C256.299 63.4388 256.155 65.9952 254.708 67.1482C254.779 68.1006 255.901 66.0453 255.25 68.7523C254.925 68.9026 254.816 69.2033 254.888 69.6546C254.888 70.5568 254.128 70.6572 253.513 70.7573C253.259 71.3588 252.971 71.9603 252.789 72.562C252.752 73.1134 252.681 73.7149 252.5 74.2161C252.5 74.4669 252.5 74.7676 252.572 75.0182C251.197 76.8228 249.351 78.5272 248.192 80.5823C247.541 81.8355 246.601 82.4872 245.623 82.9384C245.515 83.3894 245.442 83.8908 245.442 84.4422C243.778 84.7931 244.429 88.5025 243.054 87.4497C242.185 87.6002 242.656 89.5552 241.28 89.5051C241.28 88.5526 241.027 87.8508 241.063 87.3496C240.521 87.3496 239.978 87.2493 239.797 86.6979C239.29 87.1991 239.218 87.6504 239.253 88.1014C239.253 88.1014 239.29 88.1516 239.253 88.302C239.435 89.104 239.978 89.7055 238.819 89.856H238.675C238.675 89.856 238.784 90.0564 238.928 90.1066C239.833 90.6579 237.372 90.1567 237.843 91.4099C237.516 94.3673 235.779 91.059 235.091 93.4149C233.79 93.4149 232.305 94.1669 230.821 94.5679C229.192 95.6205 227.637 96.5229 226.117 96.7735C225.9 97.1744 225.683 97.5755 225.466 97.9264C223.548 98.3275 221.521 100.282 219.892 100.433C219.313 99.681 218.227 100.683 217.829 101.285C216.164 101.586 218.3 100.433 218.118 99.8313C217.938 99.7811 217.684 99.8814 217.467 100.032C215.947 102.037 214.102 103.641 211.786 103.14C211.677 102.989 211.604 102.889 211.532 102.789C211.279 102.839 211.098 102.989 211.243 103.34C211.75 103.741 211.75 103.942 210.989 104.242C209.723 105.245 208.781 106.298 207.225 105.796C206.9 105.696 207.225 105.446 207.515 105.195C206.538 105.496 205.561 105.847 204.801 106.548C204.258 106.097 203.535 104.944 202.882 105.997C201.76 109.305 199.517 106.799 198.105 107.601C198.359 108.804 195.789 109.656 195.246 108.604C194.994 108.102 194.558 108.253 194.342 108.854C193.365 111.01 191.772 110.007 190.252 110.208C188.877 110.308 188.153 112.514 186.741 111.661C184.715 112.363 183.92 110.559 181.82 111.411C180.264 112.614 178.092 111.762 176.897 112.965C176.282 112.965 175.596 112.814 174.835 112.664C174.835 112.664 174.727 112.664 174.654 112.664C172.844 112.363 170.782 112.062 169.08 113.215C167.126 114.769 165.172 112.163 162.82 113.065C161.734 113.065 161.951 113.215 162.531 113.666C162.82 115.371 160.938 113.416 160.468 114.519C157.32 113.566 153.7 115.872 150.769 114.218C148.598 114.368 146.498 114.619 144.073 114.97C143.097 114.819 142.517 114.067 141.938 115.722C139.332 116.023 135.967 115.271 133.072 115.722C132.022 116.223 132.782 113.516 131.334 114.869C130.719 115.12 129.959 115.02 129.236 114.92C129.091 115.02 128.946 115.12 128.62 115.12C128.439 115.07 128.295 115.02 128.15 114.97C127.933 114.97 127.752 115.12 127.571 115.22C127.679 115.371 127.788 115.571 128.041 115.822C127.715 116.123 127.028 116.022 126.738 115.672C125.436 115.972 123.626 113.566 122.576 115.571C121.201 116.474 122.142 114.819 121.708 114.318C120.767 116.574 118.125 115.922 116.605 115.271C116.605 115.12 116.496 115.07 116.424 114.97C115.881 114.869 115.411 114.819 114.904 114.769C114.506 114.819 114.144 114.92 113.963 114.769C113.637 115.872 113.022 115.22 112.479 114.97C111.647 114.418 111.683 116.273 110.887 115.271C110.417 114.368 109.403 112.413 108.318 113.316C106.834 112.965 105.857 113.917 104.518 114.218C104.481 114.017 104.373 113.817 104.3 113.616C104.119 113.717 103.902 113.817 103.794 114.017C102.998 114.318 102.129 113.416 101.152 112.864C100.718 113.165 100.102 113.215 99.3423 113.015C98.7632 114.268 97.5328 113.215 96.9175 112.313H96.809C96.809 113.516 94.8186 113.115 94.3843 112.514C94.2757 112.263 94.1672 111.912 94.0223 111.762H93.7328C93.7328 111.762 93.588 111.812 93.4795 111.962C93.3709 113.717 91.4528 111.762 90.8014 111.661C89.39 112.163 88.1595 111.812 88.7747 110.559C88.3405 110.659 87.8699 110.559 87.4358 110.308C86.9652 110.659 85.9157 110.809 84.9024 110.759C84.83 110.759 84.7576 110.759 84.649 110.759C83.5995 110.709 82.7309 110.408 82.7309 109.957C82.0434 109.556 81.4644 109.055 80.9938 108.904C80.9214 108.954 80.8491 109.005 80.8128 109.105C80.0167 109.606 79.7272 109.656 79.5824 109.456C79.2206 109.456 78.7862 109.305 78.2433 108.804H78.2072C78.3882 109.706 78.8586 110.759 77.5558 110.057C76.5062 108.353 75.2396 109.907 74.0815 109.556C73.792 109.205 74.8053 107.601 73.6833 108.052C72.8872 108.904 72.2358 107.902 71.5482 107.3C71.1138 107.3 70.752 107.2 70.4263 106.949C70.2814 106.949 70.173 107.05 70.0281 107.15C69.1596 108.453 66.373 106.999 65.2511 106.097C64.853 106.398 64.5634 106.799 64.2377 106.097C63.4416 105.295 63.912 104.744 63.912 104.192C63.8035 104.192 63.6949 104.242 63.5863 104.393C63.333 105.095 63.333 106.147 62.7902 106.548C62.1388 106.849 62.0663 105.345 61.5235 105.997C60.9444 106.699 60.6911 105.997 60.3654 105.746C59.1349 104.242 57.5063 104.744 56.1674 104.242C56.0588 103.741 55.6244 103.34 55.1178 102.989C54.2854 103.39 53.9597 103.09 53.7426 102.388C53.0912 102.287 52.4759 102.338 52.1864 102.839C52.0778 103.49 51.6074 103.541 51.2816 102.939C49.3997 102.087 47.9159 100.633 45.7084 100.383C44.4417 100.182 43.3197 98.6282 41.7635 98.5781C40.2436 98.9791 40.3884 97.2246 39.4113 96.7234C39.3027 96.7234 39.2303 96.8237 39.1217 96.8237C39.5921 98.8788 37.855 96.5229 37.2398 96.172C33.6207 95.1193 30.3637 93.3148 27.4685 90.5076C23.596 89.7557 20.6285 86.2467 17.0818 84.4422C14.5484 81.7853 11.7256 80.8831 9.37328 77.5246C8.86662 76.8228 7.02092 74.2161 6.22472 72.1609C6.15234 72.1609 6.11616 72.1609 6.04377 72.1108C4.92188 70.1056 3.54664 67.2985 2.56951 64.3913C1.41142 64.3913 1.8457 60.782 0.832376 60.03C0.361903 58.025 0.108571 55.9195 0 53.7641C0 51.4082 0.289522 48.952 1.04952 46.9468C0.759996 46.2952 1.37523 44.3401 1.88189 45.042C2.09904 44.6911 2.24379 44.3401 2.46094 43.9892C2.64188 42.7361 3.07617 41.6333 3.65521 40.8814C3.69141 40.7311 3.79998 40.6308 3.90855 40.5304C4.88569 39.127 6.11616 38.5255 7.12948 38.7761C7.41901 38.5255 7.52757 38.2247 7.70853 37.9739C7.38282 37.5229 7.02092 37.0215 7.31044 36.0691C7.88948 35.8686 8.50472 35.4176 9.04757 34.866C9.30091 33.8635 9.62661 32.7106 10.7123 32.1091C11.4361 30.9562 13.0647 30.6555 13.1009 31.8585C13.1009 31.9086 13.1009 31.9086 13.1009 31.9588C13.1733 31.7582 13.2818 31.5076 13.2818 31.3071C13.5352 30.7556 14.1504 29.302 14.5847 29.2518C14.6571 29.2518 14.7294 29.2518 14.8018 29.2518C14.9104 28.0488 15.5981 26.8458 16.5389 26.4447C18.819 25.3919 20.8455 24.3895 22.9446 24.9409C23.596 24.2391 22.6189 24.2391 22.9446 23.5372C24.2474 23.2365 23.5599 25.2417 24.5008 24.8907C24.6456 24.8907 24.6817 24.7904 24.7541 24.7904C24.718 24.59 24.1751 24.59 24.6456 24.3394C25.1161 23.2866 25.5865 21.833 26.3828 21.432C27.6493 21.8832 28.6266 18.8253 29.4951 20.0283C30.1465 20.5297 31.0151 18.7752 31.9922 18.9757C33.657 19.2263 33.9103 16.72 35.177 16.6698C35.5751 16.8202 36.0455 17.121 35.9731 17.4719C35.7198 18.1737 36.2627 18.3742 36.8055 18.324C36.8418 18.2238 36.9502 18.1737 36.9141 17.9731C37.1312 17.7225 37.4208 17.6222 37.7103 17.5721C37.5655 16.9205 38.6512 17.0207 38.6874 16.4693C38.1807 15.6673 39.0856 15.2161 39.6284 15.0156C40.8951 14.3138 41.3655 15.7675 42.4512 15.567C42.4512 15.5169 42.4512 15.4668 42.4512 15.3665C42.3065 15.2161 41.7998 15.3665 42.0892 14.9154C42.994 15.0156 43.7179 14.8151 44.4417 14.5144C44.8397 13.9128 45.2017 13.2612 45.9255 13.7123C46.5769 13.2612 47.2283 12.8601 47.9159 12.5093C48.6036 12.1584 49.9787 10.1533 50.5578 12.0581C50.5578 12.5093 50.7025 12.7599 50.8474 12.9604C51.3178 13.0607 51.8607 13.1609 52.3673 13.2612C52.693 13.1108 52.9826 12.9604 53.2722 12.7098C53.5254 12.5093 53.7787 12.3087 53.9236 12.0581C54.4664 11.1057 55.335 11.5568 56.0225 11.9077C56.4568 11.7573 56.8911 11.6571 57.3254 11.5067C57.3254 11.4566 57.3616 11.4065 57.3616 11.3563C57.2531 10.6545 57.9045 10.9052 58.4112 11.1057C59.4967 10.6545 60.5464 10.3538 61.6682 10.0029C61.8131 9.8525 61.9939 9.80238 62.2111 9.8525C64.0206 9.35123 65.8663 9.00033 67.6758 9.30109C68.9786 8.79982 70.4987 8.59932 71.4395 8.59932C71.8015 9.30109 72.8148 9.05045 73.5749 8.59932C73.6833 8.54918 73.792 8.44894 73.9006 8.3988C74.371 8.09805 74.5881 7.69701 74.2986 7.54664C74.9863 7.14562 75.5653 7.34614 76.1081 7.69701C76.9405 7.49652 77.7368 7.34614 78.3158 6.99524C79.0757 7.84741 81.4281 6.29345 80.7043 7.79727C80.8853 7.89753 81.4644 7.89753 81.5005 7.69701C81.6091 7.0955 82.1158 7.0955 82.5862 7.0955C82.5862 6.9451 82.5501 6.84485 82.5862 6.69447C83.1291 6.34357 83.5272 6.24333 83.8166 6.34357C84.9024 6.24333 86.0967 6.34357 87.3634 6.39371C87.9786 5.79218 88.63 5.29091 89.209 5.24077C89.8966 6.44383 91.7424 7.14562 92.6471 5.69192C93.8413 5.74204 95.1443 5.79218 96.4833 5.8423C96.5557 5.49141 96.5557 5.19065 97.0985 5.59166C99.4509 6.19319 101.658 5.59166 103.866 5.29091C104.481 5.14053 105.133 5.04027 105.676 4.83976C106.725 4.58912 106.689 4.83975 106.436 5.19065L107.232 5.29091C107.232 5.29091 107.449 5.14053 107.594 5.29091C107.847 5.29091 108.1 5.29091 108.354 5.39117C109.295 3.83721 111.719 6.59421 112.733 5.79218C111.864 5.69192 111.394 5.29091 112.516 3.98759C113.022 4.3886 115.338 2.98504 114.542 4.13797C114.072 4.58912 114.977 4.58912 115.013 4.94001C115.809 5.8423 116.207 4.28836 116.967 4.88989C117.437 5.59166 117.474 4.58912 117.763 4.7395C118.089 5.34103 120.333 3.53643 119.609 5.29091C119.392 5.44129 119.03 5.54154 119.428 5.79218C120.188 6.19319 120.224 4.7395 121.165 4.83976C121.346 5.24077 121.708 5.49141 122.07 5.6418C122.468 5.34103 122.902 5.09039 123.3 4.94001L123.409 4.78964V4.88989H123.554C123.879 5.09039 124.929 5.8423 124.603 6.1932C124.531 6.29345 124.458 6.39371 124.458 6.44383L124.603 6.59421C124.603 6.59421 124.639 6.64435 124.784 6.69447C125.182 6.89498 126.195 6.9451 126.521 6.84485H126.63C126.63 6.84485 126.521 6.59421 126.015 6.49397C125.037 4.539 128.801 5.29091 129.634 4.88989C129.815 4.99013 129.995 4.99013 130.176 5.04027C130.466 4.83976 130.864 5.19065 131.262 5.34103H131.407C131.769 5.44129 133.144 4.94001 132.384 5.69192C133.18 5.89244 134.013 6.04282 134.809 6.44383H134.845C135.026 6.34357 135.279 6.34357 135.496 6.24333C134.049 5.44129 135.641 5.39117 137.234 5.79218C139.079 5.6418 141.106 6.29345 142.662 7.34614C143.385 7.34614 144.146 7.44638 144.905 7.74715C145.593 7.69701 146.281 7.59677 146.969 7.64689C147.222 7.54663 147.512 7.59677 147.766 7.69701C149.14 7.79727 150.479 8.09805 151.746 8.54918C152.289 8.29854 152.831 8.14817 153.121 8.34868C154.134 8.44894 154.93 9.50161 155.763 10.1031C155.979 10.2034 156.198 10.3037 156.415 10.4039C156.704 10.454 156.993 10.5042 157.32 10.3037H157.464C156.632 9.40135 157.754 9.00033 157.971 8.34868C159.092 7.74715 160.36 10.7047 161.553 9.55175C163.436 10.7548 165.317 9.10059 167.343 10.4039C167.452 10.5042 167.56 10.5543 167.706 10.6044C168.828 10.5543 169.95 10.6044 171.036 10.9553L172.773 11.2561C173.713 10.7047 174.727 11.2561 175.884 11.5067C175.994 11.7072 176.138 11.7573 176.282 11.8075H176.501C176.501 11.8075 176.753 11.8075 176.897 11.6571C177.006 11.7072 177.043 11.8075 177.116 11.9077C178.092 12.008 179.07 12.008 180.046 11.9077C180.59 11.4065 182.146 13.3113 181.856 12.1584C181.603 11.2561 182.833 12.1584 182.942 12.5594C184.86 13.9629 191.772 12.6596 193.255 15.8678C193.762 15.9681 194.667 16.9205 194.848 16.4192C194.342 15.7174 194.848 15.6673 195.392 15.6172C197.02 15.7174 200.096 16.5194 200.169 19.2765C200.132 19.3766 200.059 19.4268 199.951 19.4769C200.023 21.081 199.625 23.1364 198.974 24.2391C198.757 24.7403 197.888 24.9409 197.056 24.8907C197.056 25.1915 197.056 25.5424 196.983 25.793C197.309 26.4447 198.685 27.2466 196.658 27.6979C196.875 27.0462 195.899 26.3444 195.899 27.2466C195.572 28.6001 193.365 25.8933 193.835 24.9911C193.835 24.7904 193.762 24.6401 193.726 24.4897C193.654 24.4897 193.582 24.4897 193.509 24.4897C193.22 24.4897 192.859 24.4897 192.569 24.4395C192.64 24.7403 192.786 25.0912 193.111 25.4923C193.437 26.6953 191.664 25.2918 191.664 25.8933C191.084 27.0964 186.597 25.2918 186.38 23.6877C186.38 23.5372 186.38 23.387 186.38 23.2365C185.584 22.8354 184.715 22.5347 183.847 22.5347C183.847 22.6851 183.955 22.8354 184.245 22.8856C184.787 26.0436 180.01 24.6903 180.336 22.7855C183.015 24.3394 182.11 21.4821 179.938 21.6324C179.251 22.3844 180.083 24.2391 178.853 23.9885C177.984 23.6877 176.282 24.0886 176.065 22.3844C174.545 22.5347 173.64 20.68 172.085 21.5822C171.036 18.7251 167.343 21.4821 166.547 18.7752C164.702 18.4243 162.495 20.0785 160.829 18.0233C160.431 18.2238 160.033 18.2739 159.599 18.324C160.323 19.1762 159.092 18.7251 157.789 18.3742H156.269C157.681 18.9757 157.101 19.126 155.546 18.5747C155.437 18.5747 155.329 18.4744 155.256 18.4243C155.003 18.4243 154.713 18.4243 154.459 18.5246C154.315 18.5246 153.809 18.0734 153.302 17.7225C152.722 18.324 152.144 18.1235 151.601 17.8729C149.936 17.522 147.91 17.3716 145.775 17.1711C144.254 17.2212 142.734 17.2714 141.287 16.7701C141.142 16.6197 140.962 16.6197 140.781 16.6197C140.599 16.6197 140.418 16.6197 140.274 16.5696C139.513 16.72 138.717 17.3215 137.993 16.5194C137.776 15.7675 136.582 15.6673 136.365 16.6197C136.365 16.9205 135.858 16.9205 135.822 16.6197C136.365 15.3164 134.411 15.9179 133.94 15.3665C134.085 15.3665 134.23 15.2663 134.338 15.166C134.085 15.166 133.868 15.0657 133.578 15.0657C133.18 14.9154 132.782 14.7149 132.384 14.5645C132.022 15.4166 131.769 16.4693 131.226 16.4693C130.936 16.1686 129.597 14.9154 129.959 16.1184C132.275 17.4719 128.91 17.7726 127.969 17.2212C126.63 17.2714 126.376 16.1184 126.159 15.1159C125.797 15.1159 125.435 15.1159 125.074 14.6146C124.893 14.2637 124.639 14.1635 124.422 14.0632C124.386 14.0632 124.35 14.0632 124.277 14.1133C123.373 14.8652 121.961 17.121 120.839 15.9681C120.007 14.3138 117.655 16.0182 116.822 15.3164C116.605 14.6647 116.207 14.1133 115.737 13.7624C115.013 13.7624 114.289 13.8126 113.601 13.8627C113.529 13.9629 113.457 13.9128 113.384 14.0131C111.647 14.1635 109.548 15.8177 107.775 15.1159C106.725 14.1635 106.146 15.166 105.133 15.7174C103.939 15.1159 102.093 13.9629 100.79 15.1159C100.681 16.2688 99.0528 16.2187 98.3652 16.1184C98.3652 15.0156 97.1347 15.8678 96.4471 15.3665C96.1576 15.2161 95.7594 15.6673 96.23 15.8678C97.3518 17.6724 94.6737 15.4668 93.9138 16.0182C93.9138 15.8177 93.9138 15.567 93.6242 15.567C92.7557 15.567 93.6242 14.8652 93.9499 14.8151C94.0947 14.8151 94.0947 14.7149 94.2033 14.6146C93.6966 14.6146 93.1538 14.6146 92.6471 14.6146C91.2357 16.3691 89.028 14.6146 88.3766 17.0207C87.7976 17.0207 87.6166 15.7174 87.0738 15.9179C86.6034 16.1686 86.2414 16.0683 85.8795 15.8678C85.1196 16.0182 84.3596 16.1184 83.6357 15.8678C82.5138 15.1159 80.1253 16.8202 79.4376 15.8678C79.329 15.9179 79.2206 15.9681 79.1482 16.0683C79.9806 16.8202 80.8853 16.6197 81.6814 16.0683C83.2015 16.5194 80.2338 17.3215 79.5463 17.2212C78.3882 17.6222 78.3519 16.6698 77.9901 15.9179C76.9768 16.5194 75.7824 17.7726 74.5157 16.6197C73.2853 17.2212 72.0548 16.6197 71.0415 17.7225C71.4758 17.7225 71.8377 17.7225 71.0415 18.4744C69.7024 19.8279 67.8929 17.8729 66.6625 19.3766C65.5044 20.3291 64.4187 21.2815 63.7673 20.0283C64.093 19.126 65.4681 19.5271 66.0472 18.7251V18.6749C64.6359 18.1235 63.1882 19.0259 61.8492 17.923C61.3787 18.4744 63.0435 18.7752 61.2701 19.4268C61.0168 19.126 60.7997 19.1762 60.6187 19.5271C60.1844 20.0785 59.714 19.2765 59.2434 18.7251C58.773 18.8754 58.3387 19.0759 57.9406 19.2765C57.6511 19.6274 57.3616 19.9783 56.9997 20.1788C56.8911 20.3792 56.7464 20.5798 56.7102 20.8806C55.0093 20.9807 52.9463 20.8806 51.3541 22.0335C50.4131 22.6851 49.4721 22.635 48.495 22.5347C48.2779 22.8856 48.0969 23.2866 47.9522 23.7878C46.3959 23.2365 46.1788 27.0462 45.2017 25.3919C44.4054 25.1915 44.4778 27.0964 43.2112 26.5952C43.3922 25.6927 43.2473 24.9409 43.3922 24.4395C42.8855 24.2391 42.3788 23.9383 42.3065 23.3368C41.7274 23.5874 41.5826 24.0386 41.5826 24.4897C41.5826 24.5398 41.6188 24.59 41.5826 24.6903C41.6188 25.5424 42.0531 26.2942 40.9312 26.0436H40.7864C40.7864 26.0436 40.8588 26.2442 40.9674 26.3444C41.7274 27.1967 39.5197 25.8933 39.8093 27.2466C39.194 30.0539 37.8912 26.2942 37.0226 28.4499C35.8284 28.1991 34.3446 28.6503 32.9332 28.8507C31.3408 29.703 29.857 30.505 28.4093 30.7054C28.1922 31.1065 28.0113 31.5076 27.7942 31.8083C25.9846 32.2596 24.1751 34.2645 22.6913 34.6656C22.0761 33.9638 21.1351 35.1668 20.8455 35.8185C19.2894 36.37 21.1712 34.9162 20.9542 34.3147C20.7732 34.3147 20.5561 34.4652 20.339 34.6154C19.1447 36.9214 17.7694 38.8262 15.6342 39.1771C15.4894 39.0768 15.4171 39.0267 15.3085 38.9263C15.0914 39.0768 14.9828 39.2271 15.1999 39.5279C15.7428 39.7285 15.7789 39.8788 15.1999 40.4303C14.2951 41.7836 13.9694 43.2374 12.5218 43.4379C12.1961 43.488 12.4133 43.1371 12.5942 42.7862C11.8342 43.488 11.2914 44.3903 11.0018 45.3929C10.4228 45.2926 9.37328 44.7914 9.40948 46.1447C9.80757 47.7989 9.3009 48.3503 8.86662 48.9018C8.35995 49.403 7.56377 49.8543 7.59996 50.6061C8.03424 50.8067 8.14281 51.4082 7.99805 51.9596C7.99805 52.5109 7.78091 52.9621 7.34662 53.1124C6.91235 53.2127 6.91235 53.664 7.34662 53.9647C8.75805 55.0173 7.92566 56.3708 8.2152 57.9749C8.46852 59.4285 10.0609 59.3284 9.87995 61.0326C10.8933 62.6868 10.1333 64.4412 11.6533 66.0955C13.0647 66.9476 13.8609 69.5041 15.2724 69.7047C15.5981 70.3062 16.0322 71.0081 16.4666 71.7599C16.4666 71.7599 16.5389 71.8602 16.5752 71.9103C17.6609 73.7149 19.0723 75.6699 20.8455 76.0708C22.9809 76.2714 23.4513 79.8805 25.7675 80.7829C26.6722 81.5347 26.5275 81.234 26.2379 80.482C26.6361 78.8279 27.4685 81.7853 28.2646 81.0837C30.617 83.9408 34.4531 83.9909 36.5884 87.0488C38.5789 88.0512 40.5694 88.8032 42.8493 89.6553C43.7179 90.2069 44.0797 91.1593 44.9845 89.856C47.4455 90.7081 50.4493 92.7632 53.2722 93.2646C54.3577 93.1141 53.1273 95.5204 54.7559 94.6681C55.4073 94.6181 56.0588 94.9688 56.7464 95.2698C56.8911 95.2196 57.0721 95.1694 57.3616 95.2698C57.5425 95.3699 57.6512 95.4702 57.7959 95.5705C58.013 95.5705 58.1939 95.5705 58.4112 95.5204C58.3387 95.3197 58.2302 95.1193 58.0853 94.7684C58.4473 94.5679 59.0626 94.8687 59.3159 95.3197C60.5825 95.4201 61.9939 98.2773 63.2968 96.5729C64.7444 96.0216 63.6225 97.4252 63.9844 98.0267C65.2148 96.0216 67.6396 97.3249 69.051 98.2272C69.051 98.3776 69.1234 98.4276 69.1959 98.5279C69.7024 98.7286 70.173 98.8788 70.6434 99.0293C71.0054 99.0293 71.3672 99.0293 71.5844 99.1796C71.9825 98.177 72.5253 98.8788 73.0319 99.2799C73.792 99.9817 73.9006 98.0769 74.6243 99.2298C75.0224 100.182 75.8548 102.287 76.9768 101.536C78.4243 102.087 79.4376 101.285 80.7767 101.084C80.7767 101.285 80.8853 101.486 80.9577 101.686C81.1387 101.586 81.3557 101.536 81.5005 101.335C82.2967 101.084 83.1291 102.137 84.0339 102.739C84.468 102.438 85.0833 102.488 85.8434 102.739C86.4585 101.536 87.6166 102.638 88.1956 103.541H88.3043C88.3405 102.338 90.2586 102.789 90.6928 103.441C90.8014 103.691 90.91 104.042 91.0547 104.192H91.3443C91.3443 104.192 91.489 104.142 91.5975 103.992C91.7061 102.237 93.588 104.142 94.2033 104.293C95.5785 103.741 96.7728 104.042 96.1937 105.345C96.6281 105.245 97.0624 105.345 97.4966 105.546C97.9671 105.195 98.9803 104.994 99.9576 104.944C100.03 104.944 100.102 104.944 100.211 104.944C101.224 104.944 102.093 105.145 102.129 105.596C102.817 105.947 103.396 106.398 103.866 106.498C103.939 106.448 104.011 106.348 104.047 106.248C104.807 105.646 105.097 105.596 105.241 105.746C105.603 105.696 106.001 105.847 106.616 106.298H106.653C106.399 105.446 105.893 104.443 107.196 104.994C108.354 106.548 109.476 104.794 110.597 104.994C110.887 105.295 110.055 107.05 111.104 106.448C111.792 105.496 112.516 106.398 113.276 106.849C113.674 106.799 114.072 106.799 114.398 106.999C114.542 106.949 114.651 106.849 114.796 106.699C115.519 105.195 118.342 106.147 119.573 106.799C119.898 106.398 120.152 105.947 120.55 106.498C121.418 107.05 121.056 107.751 121.093 108.253C121.201 108.152 121.31 108.152 121.382 107.952C121.527 107.2 121.382 106.147 121.889 105.646C122.468 105.195 122.757 106.649 123.192 105.897C123.626 105.044 124.024 105.696 124.35 105.897C125.761 107.05 127.245 106.047 128.584 106.097C128.765 106.548 129.236 106.799 129.778 106.999C130.502 106.348 130.864 106.548 131.19 107.15C131.841 107.05 132.384 106.799 132.601 106.197C132.601 105.546 133.035 105.295 133.434 105.746C135.388 105.897 137.053 106.699 139.152 106.047C140.382 105.696 141.757 106.649 143.205 106.047C144.507 105.044 144.761 106.649 145.81 106.649C145.883 106.548 145.956 106.448 146.027 106.448C145.087 104.744 147.259 106.097 147.91 106.147C151.456 105.245 154.786 105.095 158.187 105.696C161.699 103.942 165.354 104.744 168.828 103.39C171.868 103.49 174.147 101.636 177.187 101.636C177.839 101.636 180.155 101.536 181.639 101.636C181.675 101.586 181.675 101.536 181.747 101.486C183.376 101.486 185.403 101.135 187.356 100.884C187.575 99.3301 189.602 101.034 190.144 99.6308C192.46 99.0293 194.704 98.1268 197.02 97.8763C197.165 97.2747 198.251 96.974 198.214 97.8763C198.468 97.8763 198.685 97.8763 198.937 97.8763C199.517 97.3249 200.205 97.0743 200.856 96.9238C200.928 96.8237 201.037 96.8237 201.145 96.9238C202.267 96.8237 203.353 97.2246 204.077 98.1269C204.402 98.1269 204.584 97.9766 204.801 97.8763C204.656 97.2747 204.548 96.5729 205.055 95.9714C205.561 96.222 206.176 96.0717 206.792 95.9714C207.261 95.1694 207.768 94.4676 208.818 94.4175C209.65 93.6657 211.135 94.1167 210.953 95.2196C210.953 95.2698 210.953 95.2698 210.916 95.3197C211.025 95.1694 211.17 94.9688 211.206 94.8185C211.532 94.4175 212.292 93.2646 212.726 93.3148C212.799 93.3649 212.872 93.3148 212.907 93.4149C213.16 92.3122 213.921 91.3597 214.826 91.2594C216.997 90.8084 218.952 90.307 220.906 91.0088C221.557 90.4073 220.616 90.2568 220.941 89.6553C222.172 89.5051 221.484 91.4099 222.389 91.1593C222.534 91.1593 222.57 91.1091 222.607 91.059C222.57 90.8586 222.063 90.8084 222.534 90.6078C223.004 89.5552 223.439 88.2017 224.198 87.8006C225.429 88.2519 226.225 85.2441 227.094 86.3972C227.745 86.8984 228.433 85.0938 229.374 85.194C230.967 85.194 230.929 82.7879 232.088 82.5373C232.45 82.5373 232.921 82.7879 232.921 83.1388C232.776 83.8407 233.319 83.9909 233.825 83.7905C233.825 83.6902 233.934 83.59 233.861 83.4396C234.007 83.1388 234.259 82.9885 234.549 82.8381C234.332 82.2366 235.345 82.0861 235.273 81.5347C234.695 80.8831 235.418 80.2314 235.852 79.8805C236.83 78.8781 237.553 80.0811 238.458 79.5296C238.458 79.4796 238.458 79.4294 238.385 79.3793C238.24 79.3291 237.806 79.5797 237.987 79.0785C238.784 78.8781 239.399 78.3767 239.941 77.8253C240.158 77.0734 240.304 76.4217 240.992 76.522C241.426 75.8703 241.824 75.1685 242.293 74.5168C242.729 73.8652 243.054 71.4591 244.212 72.8126C244.357 73.2137 244.574 73.3138 244.791 73.4141C245.225 73.2636 245.623 73.0131 246.057 72.7625C246.238 72.4617 246.384 72.1609 246.492 71.7599C246.564 71.4591 246.709 71.1082 246.672 70.8074C246.601 69.6546 247.36 69.5041 248.012 69.2535C248.265 68.8524 248.411 68.4516 248.59 68.0003C248.59 67.9502 248.59 67.9 248.519 67.85C248.084 67.449 248.59 67.1482 249.026 66.8976C249.315 65.7947 249.749 64.7921 249.894 63.7396C249.894 63.539 249.894 63.3887 250.002 63.2382C250.365 61.4838 250.546 60.1303 250.907 58.2756C250.69 56.822 250.581 55.1677 250.509 54.115C251.015 53.664 250.798 52.5109 250.327 51.7591L250.148 51.4082C249.858 51.0071 249.568 50.8067 249.495 51.1576C249.134 50.5059 249.134 49.9044 249.243 49.2026C248.917 48.4004 248.628 47.5985 248.192 47.1974C248.519 46.0446 246.674 44.3903 247.904 44.3903C247.904 44.1397 247.614 43.5884 247.506 43.6383C247.107 43.839 246.891 43.3877 246.672 42.8865C246.601 42.9866 246.528 43.087 246.42 43.087C245.986 42.736 245.732 42.4353 245.623 42.1345C245.008 41.2323 244.466 40.0292 243.778 38.8764C243.127 38.7761 242.512 38.5255 242.113 38.0742C242.293 36.6708 241.353 34.5653 240.087 35.0165C239.29 34.1143 238.421 32.9612 237.408 32.0589C237.191 32.3095 237.082 32.5603 236.83 31.8585C235.31 29.703 233.283 28.8008 231.328 27.8483C230.785 27.6477 230.206 27.347 229.663 27.2466C228.723 26.8959 228.794 26.7454 229.121 26.545C228.904 26.3945 228.686 26.2442 228.469 26.0436C228.325 26.1439 228.216 26.0436 228.179 25.8432C227.962 25.6927 227.745 25.5926 227.564 25.3919C226.334 26.3444 224.959 22.635 223.837 22.9357C224.597 23.4371 224.886 24.0386 223.62 24.7403C223.294 24.0888 220.906 24.4897 221.882 23.7379C222.389 23.4871 221.594 23.1364 221.629 22.7855C221.087 21.6324 220.399 22.9357 219.855 22.1338C219.567 21.2815 219.349 22.2339 219.096 21.9833C218.915 21.2815 216.527 22.2841 217.503 20.7803C217.72 20.7301 218.083 20.7803 217.757 20.3291C217.142 19.6776 216.817 21.081 215.983 20.68C215.875 20.2289 215.622 19.878 215.297 19.5773C214.861 19.7275 214.427 19.8279 214.029 19.878L213.921 20.0283V19.9282H213.812C213.558 19.6274 212.69 18.6248 213.016 18.3742C213.124 18.324 213.16 18.2238 213.197 18.1737L213.089 18.0233C213.089 18.0233 213.089 17.923 212.943 17.8729C212.582 17.5721 211.641 17.2212 211.315 17.2212H211.206C211.206 17.2212 211.315 17.4719 211.75 17.7225C212.365 19.8279 208.962 18.1737 208.13 18.4243C207.986 18.2739 207.805 18.2739 207.659 18.1737C207.37 18.324 207.008 17.8729 206.683 17.6223L206.538 17.522C206.212 17.3716 204.838 17.7225 205.67 17.0709C204.909 16.72 204.15 16.4192 203.426 15.9179H203.389C203.209 15.9681 202.955 15.9179 202.774 16.0182C204.077 17.0709 202.557 16.8202 201.073 16.2187C199.3 16.1184 197.454 15.2161 195.97 14.1133C195.246 14.1133 194.558 13.9128 193.835 13.5619C193.184 13.5619 192.532 13.5619 191.845 13.5619C191.591 13.6121 191.339 13.6121 191.084 13.4617C189.746 13.3113 188.478 12.9604 187.248 12.5594C186.741 12.8601 186.199 12.9604 185.909 12.7599C184.933 12.6596 184.137 11.607 183.303 11.0556C183.086 10.9553 182.869 10.855 182.652 10.7548C182.362 10.7047 182.073 10.7047 181.747 10.9052H181.603C182.471 11.7573 181.349 12.2586 181.168 12.9103C180.119 13.5619 178.78 10.7047 177.658 11.9579C175.776 10.9553 174.076 12.81 172.012 11.7573C171.903 11.7072 171.795 11.6571 171.651 11.607C170.565 11.8075 169.516 11.9579 168.43 11.7573H166.728C165.896 12.5093 164.883 12.1584 163.725 12.1584C163.58 12.008 163.471 11.9579 163.327 11.9077H163.11C163.11 11.9077 162.856 12.008 162.712 12.1584C162.603 12.1584 162.566 12.008 162.495 11.9579C161.553 12.0581 160.612 12.2586 159.707 12.6095C159.274 13.2612 157.537 11.7573 157.935 12.81C158.296 13.6121 156.993 13.0607 156.849 12.7098C154.822 11.8075 148.489 15.0657 146.571 12.5594C146.1 12.6596 145.051 12.008 144.978 12.5594C145.558 13.0607 145.124 13.2612 144.617 13.5118C143.06 14.0131 140.057 14.3138 139.442 11.7072C139.442 11.607 139.513 11.5067 139.586 11.4065L139.188 11.1558ZM221.811 21.6826C221.811 21.6826 221.919 21.2315 221.919 21.0309C221.594 20.8806 221.304 20.7301 220.977 20.7301C220.435 21.081 220.977 21.3818 221.811 21.7327V21.6826ZM242.005 86.1965L241.932 85.9961C241.932 85.9961 241.824 86.2467 242.005 86.1965ZM44.514 23.6877V23.4371C44.514 23.4371 44.3693 23.6376 44.514 23.6877ZM59.1711 18.4243C59.1711 18.4243 58.9902 18.2739 58.9177 18.2238C58.8816 18.2238 58.8453 18.2238 58.773 18.2238C58.8816 18.4243 58.9902 18.3742 59.1711 18.3742V18.4243ZM114.578 5.74204C114.578 5.74204 114.578 6.24333 114.578 6.44383C114.94 6.44383 115.266 6.49397 115.592 6.34357C116.062 5.79218 115.411 5.74204 114.542 5.74204H114.578ZM253.332 70.7071C253.332 70.7071 253.115 70.8074 253.042 70.8576C253.042 70.9078 253.006 70.9579 252.971 71.0081C253.115 71.0081 253.223 70.8576 253.332 70.7071Z" fill="#F2A413"/>
</svg>
