<svg width="111" height="111" viewBox="0 0 111 111" fill="none" xmlns="http://www.w3.org/2000/svg">
<g clip-path="url(#clip0_276_40299)">
<path d="M94.7443 16.2554C84.262 5.77308 70.3246 0 55.5 0C40.6752 0 26.7378 5.77308 16.2554 16.2554C5.77287 26.738 0 40.6754 0 55.5C0 70.3246 5.77287 84.262 16.2554 94.7443C26.738 105.227 40.6752 111 55.5 111C70.3246 111 84.262 105.227 94.7443 94.7443C105.227 84.262 111 70.3246 111 55.5C111 40.6754 105.227 26.7382 94.7443 16.2554ZM55.5 104.496C28.4834 104.496 6.50391 82.5163 6.50391 55.5C6.50391 28.4834 28.4834 6.50391 55.5 6.50391C82.5163 6.50391 104.496 28.4834 104.496 55.5C104.496 82.5163 82.5163 104.496 55.5 104.496Z" fill="#F2A413"/>
<path d="M82.0163 37.6921C80.747 36.4226 78.6877 36.4226 77.4177 37.6923L48.7012 66.409L33.5846 51.2924C32.3148 50.0226 30.2557 50.0226 28.9857 51.2924C27.7157 52.5622 27.7157 54.6213 28.9857 55.8913L46.4016 73.3076C47.0366 73.9426 47.8689 74.2597 48.701 74.2597C49.533 74.2597 50.3655 73.9419 51.0003 73.3076L82.0163 42.291C83.2863 41.0212 83.2863 38.9621 82.0163 37.6921Z" fill="#F2A413"/>
</g>
<defs>
<clipPath id="clip0_276_40299">
<rect width="111" height="111" fill="white"/>
</clipPath>
</defs>
</svg>
