<svg width="60" height="34" viewBox="0 0 60 34" fill="none" xmlns="http://www.w3.org/2000/svg">
<path d="M0 0.771202V10.2447C0 12.969 0.708155 15.8018 2.12446 18.7429C3.58369 21.715 5.55794 24.5167 8.04721 27.1483C10.5794 29.8107 13.412 32.0553 16.5451 33.8818L27.3605 28.82C24.8283 26.0647 22.7039 23.1855 20.9871 20.1825C19.3133 17.2104 18.4979 13.9288 18.5408 10.3375V0.771202H0ZM32.6395 0.771202V10.2447C32.6395 12.969 33.3476 15.8018 34.7639 18.7429C36.2232 21.715 38.1974 24.5167 40.6867 27.1483C43.2189 29.8107 46.0515 32.0553 49.1845 33.8818L60 28.82C57.4678 26.0647 55.3433 23.1855 53.6266 20.1825C51.9528 17.2104 51.1373 13.9288 51.1803 10.3375V0.771202H32.6395Z" fill="white"/>
</svg>
